<?xml version="1.0" encoding="UTF-8" standalone="no"?>
<svg
   id="mono"
   viewBox="0 0 1000 260"
   version="1.1"
   sodipodi:docname="polystack_dark.svg"
   inkscape:version="1.4.2 (1:1.4.2+202505120738+ebf0e940d0)"
   xmlns:inkscape="http://www.inkscape.org/namespaces/inkscape"
   xmlns:sodipodi="http://sodipodi.sourceforge.net/DTD/sodipodi-0.dtd"
   xmlns="http://www.w3.org/2000/svg"
   xmlns:svg="http://www.w3.org/2000/svg">
  <defs
     id="defs2" />
  <sodipodi:namedview
     id="namedview2"
     pagecolor="#ffffff"
     bordercolor="#000000"
     borderopacity="0.25"
     inkscape:showpageshadow="2"
     inkscape:pageopacity="0.0"
     inkscape:pagecheckerboard="0"
     inkscape:deskcolor="#d1d1d1"
     inkscape:zoom="0.88550001"
     inkscape:cx="407.11462"
     inkscape:cy="188.59401"
     inkscape:window-width="1920"
     inkscape:window-height="1011"
     inkscape:window-x="0"
     inkscape:window-y="32"
     inkscape:window-maximized="1"
     inkscape:current-layer="mono"
     showguides="true">
    <sodipodi:guide
       position="561.26481,77.052515"
       orientation="0,-1"
       id="guide3"
       inkscape:locked="false" />
    <sodipodi:guide
       position="379.44663,115.4489"
       orientation="0,-1"
       id="guide4"
       inkscape:locked="false" />
  </sodipodi:namedview>
  <text
     x="240"
     y="160"
     font-size="128px"
     font-weight="900"
     fill="#eaeafb"
     font-family="'Segoe UI', Roboto, Ubuntu, Cantarell, 'Noto Sans', sans-serif"
     id="text2"
     style="fill:#000000;fill-opacity:1"><tspan
       style="font-style:normal;font-variant:normal;font-weight:bold;font-stretch:normal;font-family:'Hasklug Nerd Font';-inkscape-font-specification:'Hasklug Nerd Font Bold';fill:#000000;fill-opacity:1"
       id="tspan3">polystack</tspan></text>
  <path
     id="path2"
     style="opacity:1;fill:#9419a6;stroke-width:3.44305;stroke-dashoffset:0.0625;fill-opacity:1"
     d="m 105.39484,46.097227 -0.06,52.363253 c 0,0 56.98648,-13.61348 56.98648,22.36006 0,35.97354 -57.03541,20.84123 -57.03541,20.84123 l -0.06,52.46109 c 69.98405,0 109.21408,-16.76908 109.21408,-77.7477 0,-4.85033 -0.9566,-11.11361 -3.0399,-17.89918 l -0.007,0.0114 c -31.48797,0 -38.9755,3.10755 -38.9755,-13.42056 0,-16.52812 7.53982,-13.96342 24.58991,-13.90297 l 0.12452,0.0667 C 166.17298,40.271385 151.47323,46.097227 105.39484,46.097227 Z m 116.44579,36.398763 -26.96105,0.0401 v 4.54095 h 26.96105 c 0,0 1.85909,0.0379 1.85909,-2.28158 0,-2.3194 -1.85909,-2.29939 -1.85909,-2.29939 z"
     sodipodi:nodetypes="cczccscczcccccccscc" />
</svg>
